<?xml version="1.0" encoding="utf-8"?>
<!-- Generator: Adobe Illustrator 23.0.6, SVG Export Plug-In . SVG Version: 6.00 Build 0)  -->
<svg version="1.1" id="visual" xmlns="http://www.w3.org/2000/svg" xmlns:xlink="http://www.w3.org/1999/xlink" x="0px" y="0px"
	 viewBox="0 0 900 450" style="enable-background:new 0 0 900 450;" xml:space="preserve">
<style type="text/css">
	.st0{fill:#151515;}
	.st1{fill:#0066FF;}
</style>
<rect class="st0" width="900" height="450"/>
<path class="st1" d="M900.1,253C900.1,253.1,900,253.1,900.1,253l-37.5-20.7C825,211.5,750,169.9,675,149.5
	c-75-20.3-150-19.2-225-7.4c-75,11.9-150,34.6-225,29.6c-75-5-150-37.5-187.5-53.9L0,101.5c0,0,0,0,0-0.1L-0.1-37.4
	c0,0,0-0.1,0.1-0.1l37.4,0c37.5,0,112.5,0,187.5-0.1c75,0,150-0.1,225-0.1s150-0.1,225-0.1c75,0,150-0.1,187.5-0.1l37.4,0
	c0,0,0.1,0,0.1,0.1L900.1,253z"/>
</svg>
