<?xml version="1.0" encoding="utf-8"?>
<!-- Generator: Adobe Illustrator 23.0.6, SVG Export Plug-In . SVG Version: 6.00 Build 0)  -->
<svg version="1.1" id="visual" xmlns="http://www.w3.org/2000/svg" xmlns:xlink="http://www.w3.org/1999/xlink" x="0px" y="0px"
	 viewBox="0 0 960 540" style="enable-background:new 0 0 960 540;" xml:space="preserve">
<style type="text/css">
	.st0{fill:#151515;}
	.st1{fill:#0066FF;}
</style>
<rect class="st0" width="960" height="540"/>
<path class="st1" d="M959.8,297.3l-40-24.8c-40-24.9-120-74.6-199.9-98.8s-160-22.9-240-8.8c-80,14.2-160,41.1-240,34.9
	c-80-6.1-160-45.6-200-65.2l-40-19.7l0.1-166l40,0c40,0,120,0.1,200,0.1c80,0,160,0.1,240,0.1c80,0,160,0.1,240,0.1
	c80,0,160,0.1,200,0.1l40,0L959.8,297.3z"/>
</svg>
