<?xml version="1.0" encoding="utf-8"?>
<!-- Generator: Adobe Illustrator 23.0.6, SVG Export Plug-In . SVG Version: 6.00 Build 0)  -->
<svg version="1.1" id="visual" xmlns="http://www.w3.org/2000/svg" xmlns:xlink="http://www.w3.org/1999/xlink" x="0px" y="0px"
	 viewBox="0 0 900 600" style="enable-background:new 0 0 900 600;" xml:space="preserve">
<style type="text/css">
	.st0{fill:#151515;}
	.st1{fill:#0066FF;}
</style>
<rect class="st0" width="900" height="600"/>
<path class="st1" d="M899.8,318.7l-37.5-27.7c-37.5-27.6-112.4-83.1-187.4-110.1s-150-25.7-225-10.2c-75,15.6-150,45.6-225,38.7
	c-75-7-150-50.6-187.4-72.5L-0.1,115L0.1-69l37.5,0c37.5,0,112.5,0.1,187.5,0.1s150,0.1,225,0.2s150,0.1,225,0.2
	c75,0.1,150,0.1,187.5,0.1l37.5,0L899.8,318.7z"/>
</svg>
