<?xml version="1.0" encoding="utf-8"?>
<!-- Generator: Adobe Illustrator 23.0.6, SVG Export Plug-In . SVG Version: 6.00 Build 0)  -->
<svg version="1.1" id="visual" xmlns="http://www.w3.org/2000/svg" xmlns:xlink="http://www.w3.org/1999/xlink" x="0px" y="0px"
	 viewBox="0 0 900 900" style="enable-background:new 0 0 900 900;" xml:space="preserve">
<style type="text/css">
	.st0{fill:#151515;}
	.st1{fill:#0066FF;}
</style>
<rect class="st0" width="900" height="900"/>
<path class="st1" d="M900.3,378.9l-37.5-32.2c-37.5-32.3-112.6-96.8-187.7-128.1c-75-31.2-150-29.1-225-10.7
	c-75,18.5-149.9,53.2-224.9,45.3S75.1,194.8,37.5,169.5L0,144.2l-0.3-215l37.5-0.1c37.5-0.1,112.5-0.2,187.5-0.3s150-0.2,225-0.3
	c75-0.1,150-0.2,225-0.3s150-0.2,187.5-0.3l37.5-0.1L900.3,378.9z"/>
</svg>
