<?xml version="1.0" encoding="utf-8"?>
<!-- Generator: Adobe Illustrator 23.0.6, SVG Export Plug-In . SVG Version: 6.00 Build 0)  -->
<svg version="1.1" id="visual" xmlns="http://www.w3.org/2000/svg" xmlns:xlink="http://www.w3.org/1999/xlink" x="0px" y="0px"
	 viewBox="0 0 675 900" style="enable-background:new 0 0 675 900;" xml:space="preserve">
<style type="text/css">
	.st0{fill:#151515;}
	.st1{fill:#0066FF;}
</style>
<rect class="st0" width="675" height="900"/>
<path class="st1" d="M675,349.3l-28.2-27.7c-28.1-27.6-84.5-83-140.8-110s-112.7-25.6-168.8-10C281,217.4,225,247.4,168.8,240.6
	c-56.1-6.9-112.5-50.5-140.6-72.4L0,146.5l0-184l28.2,0c28.1,0,84.5,0,140.6,0c56.2,0,112.2,0,168.4,0c56.1,0,112.5,0,168.8,0
	s112.7,0,140.8,0l28.2,0L675,349.3z"/>
</svg>
