<?xml version="1.0" encoding="utf-8"?>
<!-- Generator: Adobe Illustrator 23.0.6, SVG Export Plug-In . SVG Version: 6.00 Build 0)  -->
<svg version="1.1" id="visual" xmlns="http://www.w3.org/2000/svg" xmlns:xlink="http://www.w3.org/1999/xlink" x="0px" y="0px"
	 viewBox="0 0 600 900" style="enable-background:new 0 0 600 900;" xml:space="preserve">
<style type="text/css">
	.st0{fill:#151515;}
	.st1{fill:#0066FF;}
</style>
<rect class="st0" width="600" height="900"/>
<path class="st1" d="M600,352l-25-27.7c-25-27.6-75-83-125-110s-100-25.6-150-10C250,220,200,250,150,243.2
	c-50-6.9-100-50.5-125-72.4L0,149L0-35l25,0c25,0,75,0,125,0c50,0,100,0,150,0s100,0,150,0c50,0,100,0,125,0l25,0L600,352z"/>
</svg>
